<?xml version="1.0" encoding="UTF-8"?>
<svg width="18px" height="18px" viewBox="0 0 18 18" version="1.1" xmlns="http://www.w3.org/2000/svg" xmlns:xlink="http://www.w3.org/1999/xlink">
    <!-- Generator: Sketch 44.1 (41455) - http://www.bohemiancoding.com/sketch -->
    <title>bag</title>
    <desc>Created by Storm Icons</desc>
    <defs></defs>
    <g id="Page-1" stroke="none" stroke-width="1" fill="none" fill-rule="evenodd">
        <g id="bag" fill-rule="nonzero" fill="#000000">
            <path d="M17.631,17.492 L16.293,5.19 C16.273,5.02 16.131,4.892 15.961,4.892 L12.348,4.892 L12.348,3.428 C12.348,1.581 10.846,0.078 8.998,0.078 C7.15,0.079 5.648,1.582 5.648,3.428 L5.648,4.891 L2.035,4.891 C1.863,4.891 1.72,5.019 1.701,5.19 L0.358,17.555 C0.35,17.651 0.379,17.742 0.44,17.808 C0.503,17.88 0.594,17.921 0.692,17.921 L17.311,17.921 C17.495,17.921 17.644,17.772 17.644,17.587 C17.644,17.561 17.643,17.527 17.631,17.492 Z M5.983,8.257 C5.764,8.257 5.587,8.078 5.587,7.86 C5.587,7.642 5.765,7.464 5.983,7.464 C6.201,7.464 6.38,7.641 6.38,7.86 C6.38,8.079 6.201,8.257 5.983,8.257 Z M5.649,6.851 C5.214,6.995 4.919,7.399 4.919,7.86 C4.919,8.448 5.397,8.926 5.983,8.926 C6.571,8.926 7.049,8.447 7.049,7.86 C7.049,7.399 6.752,6.995 6.317,6.851 L6.317,5.561 L11.68,5.561 L11.68,6.851 C11.245,6.995 10.95,7.399 10.95,7.86 C10.95,8.448 11.428,8.926 12.015,8.926 C12.602,8.926 13.078,8.447 13.078,7.86 C13.078,7.399 12.782,6.995 12.348,6.851 L12.348,5.561 L15.661,5.561 L16.934,17.253 L1.062,17.253 L2.334,5.561 L5.648,5.561 L5.648,6.851 L5.649,6.851 Z M12.015,8.257 C11.795,8.257 11.616,8.078 11.616,7.86 C11.616,7.642 11.796,7.464 12.015,7.464 C12.233,7.464 12.411,7.642 12.411,7.86 C12.411,8.078 12.233,8.257 12.015,8.257 Z M8.998,0.747 C10.477,0.747 11.68,1.95 11.68,3.429 L11.68,4.892 L6.317,4.892 L6.317,3.428 C6.317,1.951 7.52,0.748 8.998,0.747 Z" id="Shape"></path>
        </g>
    </g>
</svg>